<?xml version="1.0" standalone="no"?>
<!DOCTYPE svg PUBLIC "-//W3C//DTD SVG 20010904//EN"
 "http://www.w3.org/TR/2001/REC-SVG-20010904/DTD/svg10.dtd">
<svg version="1.0" xmlns="http://www.w3.org/2000/svg"
 width="732.000000pt" height="488.000000pt" viewBox="0 0 732.000000 488.000000"
 preserveAspectRatio="xMidYMid meet">
<metadata>
Created by potrace 1.16, written by Peter Selinger 2001-2019
</metadata>
<g transform="translate(0.000000,488.000000) scale(0.100000,-0.100000)"
fill="#000000" stroke="none">
<path d="M1 3883 c1 -549 4 -987 6 -973 12 64 69 81 95 27 15 -31 14 -36 -3
-71 -10 -21 -23 -44 -30 -52 -17 -21 -49 -17 -59 9 -6 14 -9 -51 -9 -185 -1
-115 3 -208 7 -208 5 0 17 7 28 15 10 8 25 15 32 15 8 0 28 6 45 14 100 43
118 48 141 42 45 -11 56 -32 56 -104 0 -40 -6 -79 -15 -96 -20 -38 -19 -49 6
-72 31 -27 119 -145 119 -159 0 -25 -60 -69 -98 -71 -58 -2 -78 -13 -96 -50
-16 -35 -73 -70 -89 -55 -4 4 -3 19 2 33 13 35 -6 116 -35 151 -13 16 -24 24
-24 18 0 -6 -6 -11 -14 -11 -19 0 -29 -33 -21 -68 4 -19 -2 -42 -20 -75 -28
-54 -34 -117 -10 -117 18 0 18 2 0 -50 -12 -33 -15 -96 -15 -289 l0 -247 35
-17 c32 -15 39 -27 47 -81 7 -43 26 -24 37 36 19 98 43 143 93 174 38 24 53
28 121 27 71 0 81 -3 106 -27 33 -31 49 -33 196 -18 61 7 147 12 193 12 48 0
82 4 82 10 0 21 36 9 55 -19 28 -42 50 -44 85 -10 38 38 100 60 176 62 52 2
67 -2 105 -27 42 -28 49 -30 124 -25 130 7 386 0 436 -12 43 -10 52 -8 115 22
85 41 171 48 276 25 40 -9 82 -15 93 -15 35 2 139 -11 172 -20 18 -5 67 -7
110 -4 76 6 77 6 102 -24 14 -16 41 -35 58 -41 31 -10 34 -9 57 21 45 61 59
144 31 181 -25 32 -19 80 14 115 26 27 32 30 56 21 15 -6 30 -8 35 -5 4 3 25
-10 46 -29 35 -31 37 -36 26 -60 -20 -45 13 -60 143 -68 36 -3 40 -6 43 -33 5
-42 16 -49 44 -31 23 15 27 15 50 -4 14 -10 28 -16 32 -13 3 3 6 1 6 -5 0 -7
-6 -13 -12 -13 -30 -3 -35 -5 -49 -19 -9 -8 -18 -26 -22 -40 -3 -14 -15 -35
-26 -47 -11 -11 -18 -24 -15 -27 2 -3 -1 -2 -7 3 -6 5 -16 25 -23 45 l-13 37
-90 -60 c-109 -73 -105 -67 -269 -374 -35 -65 -75 -132 -89 -148 -42 -51 -31
-84 58 -171 l38 -37 33 33 c18 18 35 37 37 42 2 5 29 28 60 51 80 61 193 177
255 260 32 43 74 86 106 107 94 62 211 151 219 166 17 32 57 137 69 179 l12
44 68 -6 68 -6 13 50 c7 27 16 49 21 49 4 0 12 -18 18 -40 10 -37 14 -40 45
-40 33 0 35 -2 50 -55 24 -81 27 -107 14 -115 -6 -4 -17 -50 -25 -101 -7 -52
-16 -111 -19 -132 -5 -35 -4 -38 14 -32 11 3 22 0 27 -7 4 -7 4 -10 -1 -6 -4
4 -14 3 -22 -3 -11 -10 -11 -15 -1 -27 11 -13 10 -15 -4 -9 -27 10 -23 -52 8
-154 22 -70 27 -109 31 -237 5 -129 8 -152 20 -148 8 3 62 6 119 6 98 0 104 1
104 21 0 11 5 29 10 39 16 30 60 275 67 371 l6 86 -27 7 c-27 7 -35 29 -14 42
7 4 8 3 4 -4 -4 -7 0 -12 10 -12 16 0 16 12 10 138 -4 75 -9 157 -13 182 -7
58 -7 59 8 97 11 28 11 34 -3 50 -9 10 -21 31 -27 46 -13 33 5 45 39 27 12 -6
33 -9 47 -5 20 5 24 10 19 28 -4 12 -12 48 -18 80 -6 31 -15 52 -19 46 -12
-19 -39 -2 -39 25 0 31 17 43 22 15 3 -21 3 -21 26 -1 12 11 22 24 22 29 0 11
43 33 65 33 20 0 55 49 55 77 0 15 -10 33 -25 45 -14 11 -25 29 -25 40 0 11
-9 31 -20 45 -25 32 -25 54 -1 101 40 78 81 96 221 96 99 1 105 2 102 21 -2
11 -8 23 -14 26 -14 9 12 47 37 53 41 11 55 7 55 -18 0 -14 -5 -28 -10 -31 -6
-4 -9 -18 -8 -33 1 -15 -2 -41 -6 -59 -6 -26 -3 -34 16 -47 18 -13 19 -16 5
-16 -18 0 -20 -5 -17 -63 1 -35 0 -37 -22 -32 -16 4 -33 -1 -50 -14 -14 -12
-31 -21 -36 -21 -6 0 -12 -4 -14 -9 -1 -4 -23 -21 -48 -36 l-45 -28 30 -9 c17
-5 60 -6 98 -2 58 5 67 4 67 -10 0 -10 6 -29 14 -45 22 -41 18 -44 -105 -109
-47 -24 -70 -31 -93 -26 -17 3 -43 1 -57 -4 -40 -16 -84 8 -93 49 -6 31 -8 32
-20 17 -7 -10 -16 -15 -19 -11 -4 3 -7 3 -7 0 0 -4 8 -15 18 -25 15 -15 17
-29 12 -79 -8 -83 0 -109 31 -103 27 5 115 6 294 3 132 -3 423 4 459 11 45 8
129 -22 169 -62 69 -68 81 -78 207 -183 185 -153 182 -151 216 -186 21 -21 33
-45 37 -74 8 -59 42 -91 104 -96 78 -6 77 -9 83 204 4 163 8 192 24 216 39 58
96 63 159 15 70 -54 336 -278 342 -288 4 -6 10 -10 14 -10 19 0 31 63 39 203
9 142 10 150 39 190 17 23 47 50 66 60 33 17 46 18 139 8 59 -6 185 -8 296 -4
l192 6 0 1024 0 1023 -29 0 c-15 0 -45 11 -65 25 -44 30 -94 32 -123 5 -12
-10 -43 -22 -70 -25 -43 -6 -52 -4 -84 22 -20 15 -47 35 -59 43 -24 16 -83
102 -86 125 -1 9 6 15 16 15 10 0 21 7 24 16 6 14 18 16 88 11 69 -4 88 -2
120 14 20 10 46 19 57 19 11 0 36 7 55 16 33 16 73 13 62 -4 -3 -5 11 -15 29
-24 65 -29 66 -26 63 262 -3 212 -5 250 -15 227 -15 -32 -53 -89 -68 -99 -5
-4 -16 -1 -23 6 -16 16 -41 152 -42 227 0 54 2 59 40 93 30 27 49 36 75 36
l35 0 0 156 c0 121 -3 159 -14 170 -13 12 -364 14 -2537 14 l-2522 0 7 -40 c8
-52 -25 -113 -95 -173 -39 -33 -47 -46 -43 -64 5 -16 1 -25 -12 -30 -27 -10
-53 -45 -54 -70 0 -26 0 -26 34 -13 55 20 78 -23 30 -55 -21 -14 -35 -15 -68
-9 l-41 9 -1 54 c-2 40 3 58 17 72 21 21 27 99 7 99 -6 0 -19 7 -29 16 -16 15
-16 18 7 64 13 26 24 53 24 59 0 5 14 26 31 46 l32 36 -804 -5 c-442 -2 -811
-4 -819 -4 -8 0 -117 2 -242 4 l-228 5 1 -998z m6296 935 c38 -26 53 -67 53
-143 0 -80 -7 -95 -45 -95 -81 0 -125 39 -125 112 0 50 30 121 57 137 24 14
22 14 60 -11z m-1717 -18 c11 -11 21 -27 22 -35 0 -8 1 -21 2 -27 1 -7 7 -18
15 -24 22 -17 27 -124 7 -162 -9 -18 -22 -32 -29 -32 -6 0 -31 -15 -54 -34
-48 -37 -123 -57 -225 -57 -35 -1 -70 -7 -82 -14 -27 -18 -95 0 -126 33 -11
12 -25 22 -30 22 -5 0 -7 20 -4 46 4 35 0 54 -15 80 -12 19 -17 32 -11 29 5
-3 10 1 10 9 0 8 4 18 10 21 6 4 7 -1 3 -12 -6 -17 -5 -17 14 0 11 9 26 17 34
17 9 0 28 14 44 30 16 17 34 30 41 30 7 0 27 12 45 27 39 33 170 70 252 72 45
1 61 -3 77 -19z m555 -135 c52 -54 40 -85 -50 -130 -56 -29 -90 -29 -119 0 -9
10 -24 13 -38 10 -13 -3 -31 0 -43 9 -11 9 -15 16 -10 16 6 0 9 17 7 42 -5 52
13 68 77 69 25 0 55 4 66 9 42 18 75 11 110 -25z m-1638 -35 c13 -25 23 -53
23 -62 0 -19 -40 -34 -64 -25 -7 3 -17 2 -22 -3 -31 -29 -89 -50 -139 -50 -54
0 -55 0 -55 30 0 36 33 71 95 99 11 5 36 21 55 35 51 37 80 31 107 -24z m371
-87 c28 -10 58 -13 86 -9 38 6 45 4 58 -16 7 -13 20 -52 27 -88 13 -68 21 -84
28 -62 5 14 23 16 23 3 0 -5 -9 -12 -20 -16 -16 -5 -19 -14 -18 -46 1 -32 4
-37 16 -27 11 10 13 8 10 -12 -1 -14 -10 -25 -18 -25 -21 0 -30 -15 -30 -48 0
-16 -4 -26 -9 -23 -5 3 -8 22 -7 42 1 19 -4 40 -11 46 -9 7 -13 7 -13 -2 0 -8
-10 -11 -30 -8 -23 3 -30 1 -30 -12 0 -21 20 -40 42 -40 22 0 25 -51 5 -69
-16 -13 -27 -5 -27 19 0 9 -11 27 -25 40 -18 17 -22 27 -14 36 16 19 -5 26
-61 18 -43 -6 -48 -9 -38 -21 10 -12 7 -18 -12 -34 -14 -10 -28 -19 -32 -19
-5 0 -8 -9 -8 -19 0 -11 -5 -23 -11 -26 -12 -8 -33 18 -65 80 -13 23 -27 38
-35 36 -39 -11 -132 -20 -142 -14 -7 4 -19 8 -27 10 -22 3 -40 33 -40 69 0 25
8 38 37 60 34 26 94 53 120 54 6 0 15 -10 19 -22 4 -13 13 -32 21 -43 13 -19
14 -17 13 20 -2 45 8 85 21 85 5 0 9 12 9 27 0 15 11 38 26 54 22 23 31 26 72
22 26 -2 66 -11 90 -20z m2592 -27 c29 -8 80 -75 80 -104 0 -24 -27 -48 -51
-44 -10 2 -27 -1 -37 -7 -28 -15 -44 2 -47 48 -1 23 -7 47 -14 54 -11 11 -15
49 -6 59 7 7 44 4 75 -6z m-5590 -158 c23 -38 25 -74 6 -143 -26 -98 -63 -144
-135 -166 -48 -14 -66 -4 -89 51 -8 19 -22 40 -31 46 -12 9 -16 23 -13 53 2
23 8 41 13 41 5 0 27 18 49 40 21 21 57 51 79 64 22 14 42 30 46 36 14 22 55
10 75 -22z m417 10 c18 -15 12 -77 -11 -113 -25 -38 -84 -78 -114 -77 -15 1
-51 -6 -80 -15 -42 -14 -56 -15 -72 -5 -11 7 -27 12 -36 12 -23 0 -13 61 15
97 12 14 21 32 21 39 0 8 3 14 8 15 40 4 68 13 88 26 64 41 145 51 181 21z
m333 -23 c16 -8 31 -24 35 -35 9 -29 26 -25 66 16 33 34 36 35 93 30 32 -3 59
-7 61 -8 1 -2 7 -22 14 -46 13 -47 6 -82 -31 -154 -24 -45 -117 -117 -169
-131 -34 -8 -44 -6 -84 17 -25 15 -68 54 -96 88 -46 55 -50 64 -45 97 5 26 21
50 62 89 30 28 57 52 60 52 3 0 18 -7 34 -15z m2044 -173 c-3 -32 0 -55 10
-72 29 -48 37 -75 38 -122 0 -43 3 -50 33 -68 38 -24 110 -39 145 -30 32 8 55
76 33 99 -12 12 -11 17 8 37 12 13 24 23 25 21 1 -1 -1 -22 -6 -46 -9 -48 1
-63 63 -96 15 -9 27 -20 27 -24 0 -5 16 -19 36 -31 19 -12 33 -24 31 -26 -2
-3 -32 3 -67 12 -52 13 -70 14 -107 4 -102 -29 -213 12 -327 120 -73 69 -76
74 -60 91 10 11 25 19 34 19 34 0 63 46 66 107 2 32 3 59 4 61 0 2 4 1 9 -3 6
-3 8 -27 5 -53z m-1033 -62 c24 -13 25 -58 2 -120 -21 -54 -39 -70 -77 -66
-31 3 -56 29 -56 57 0 27 39 113 57 127 20 15 48 16 74 2z m2531 -139 c68 -43
83 -70 67 -118 -20 -58 -38 -81 -87 -115 -119 -82 -212 -35 -212 108 0 130
122 195 232 125z m-4507 -106 c0 -44 -3 -100 -8 -125 -24 -117 -30 -131 -70
-165 -59 -50 -111 -45 -142 15 -22 43 -19 65 20 135 20 34 42 85 50 113 19 64
73 115 117 110 l31 -3 2 -80z m2580 -3 c-1 -8 -20 -35 -42 -61 -39 -45 -49
-65 -58 -110 -6 -31 -37 -69 -65 -80 -46 -18 -165 -24 -189 -9 -11 7 -21 17
-21 22 0 5 -16 26 -35 47 -64 72 -38 158 53 175 31 6 38 3 58 -21 l22 -28 68
14 c38 7 76 12 86 10 9 -1 20 3 24 10 5 8 3 9 -6 4 -9 -5 -11 -3 -6 6 3 8 9
21 12 30 9 26 65 39 85 20 9 -9 15 -22 14 -29z m-2361 32 c9 -3 16 -14 16 -24
0 -10 7 -34 15 -55 17 -38 12 -75 -9 -75 -7 0 -22 -11 -34 -25 -23 -26 -46
-32 -57 -15 -3 5 -8 36 -10 68 -4 54 -2 60 25 86 17 15 30 32 30 37 0 11 3 11
24 3z m5824 -55 c50 -38 54 -44 48 -72 -10 -49 -52 -105 -103 -137 -47 -30
-141 -57 -165 -47 -15 5 -58 111 -58 140 0 8 18 43 40 76 43 65 68 78 144 80
31 1 50 -7 94 -40z m-618 -91 c54 -20 71 -22 103 -14 46 12 49 9 78 -85 14
-46 19 -87 17 -135 -3 -63 -5 -69 -25 -72 -13 -2 -23 1 -23 6 0 5 -19 15 -42
22 -24 7 -61 21 -82 32 -53 27 -119 18 -143 -20 -9 -15 -25 -34 -36 -43 -14
-11 -21 -33 -25 -70 -4 -53 -24 -89 -47 -89 -6 0 -19 19 -29 43 -9 23 -24 55
-33 70 -10 19 -13 42 -9 66 5 32 2 41 -19 59 -14 12 -28 22 -31 22 -3 0 -34
-29 -68 -65 -68 -72 -99 -82 -118 -40 -6 14 -15 25 -21 25 -11 0 -2 40 22 95
10 22 21 48 24 57 10 27 54 51 82 44 19 -5 28 -17 37 -51 11 -39 16 -45 39
-45 72 0 87 10 138 89 27 42 61 89 76 105 29 32 33 31 135 -6z m-4729 -139
c18 -18 21 -29 16 -74 -10 -96 -27 -115 -157 -169 -8 -3 -37 -22 -64 -41 -26
-19 -58 -35 -70 -35 -33 0 -66 36 -66 70 0 47 38 117 75 140 19 12 50 43 69
70 36 51 45 54 139 58 26 2 43 -4 58 -19z m257 -28 c20 -12 35 -149 21 -184
-11 -27 -10 -31 32 -67 24 -22 49 -39 54 -40 10 0 43 31 124 119 41 43 41 43
101 39 65 -5 87 -19 126 -80 26 -41 33 -93 16 -124 -15 -28 -93 -74 -126 -74
-13 0 -31 -7 -40 -15 -8 -8 -17 -15 -21 -15 -3 0 -19 -10 -35 -22 -27 -19 -33
-20 -67 -9 -24 8 -73 11 -133 8 -69 -3 -105 -1 -132 10 -21 8 -38 19 -38 23 0
5 -7 15 -15 24 -12 11 -16 46 -18 156 l-2 142 28 23 c15 13 27 28 27 33 0 11
40 48 60 55 21 8 23 8 38 -2z m3072 -122 c0 -5 10 -9 23 -9 33 0 52 -19 77
-77 6 -14 15 -20 24 -17 21 8 61 -35 47 -49 -29 -29 -3 -85 37 -78 7 1 22 -5
34 -14 13 -8 35 -15 50 -15 37 0 68 -13 101 -44 l28 -26 -25 -31 c-42 -50 -36
-64 31 -65 32 0 68 -4 81 -8 20 -8 22 -6 22 31 0 42 17 71 76 131 25 24 42 32
68 32 51 0 123 34 131 62 11 34 66 88 90 88 38 0 83 -29 90 -58 15 -54 11 -98
-12 -145 -13 -27 -23 -67 -23 -90 0 -67 -71 -183 -139 -229 -32 -22 -87 -23
-126 -2 -16 9 -48 22 -69 30 -39 14 -39 14 -95 -28 -31 -24 -57 -46 -59 -50
-2 -5 -14 -8 -27 -8 -28 0 -65 -54 -65 -96 0 -28 -34 -74 -54 -74 -24 0 -37
41 -31 95 5 40 3 62 -9 86 -20 41 -20 59 0 59 14 0 14 3 4 15 -14 16 -60 21
-60 6 0 -5 -15 -8 -33 -5 -30 3 -37 -1 -69 -44 -19 -26 -40 -57 -47 -69 -27
-52 -154 -97 -210 -73 -17 7 -31 20 -31 29 0 9 -7 28 -14 44 -17 30 -15 44 9
105 20 50 17 57 -18 41 -45 -20 -83 4 -119 74 -30 60 -30 62 -21 146 13 112
39 172 85 194 42 20 53 33 62 69 7 32 43 46 74 29 35 -19 72 -13 81 12 5 12 5
23 0 25 -5 2 -7 8 -4 12 7 11 35 2 35 -11z m-1554 -137 c69 -36 124 -81 124
-102 0 -35 -24 -33 -90 7 -47 27 -65 34 -68 24 -2 -7 -13 -22 -23 -32 -11 -11
-17 -19 -15 -19 2 0 -5 -27 -15 -61 -10 -33 -17 -64 -14 -69 3 -4 -2 -21 -10
-36 -8 -16 -15 -36 -15 -45 0 -9 -3 -19 -7 -23 -10 -10 -12 -36 -3 -36 10 0 0
-43 -11 -50 -8 -5 19 -92 32 -105 3 -3 4 -61 1 -128 -4 -111 -2 -128 17 -172
13 -29 26 -88 31 -143 6 -51 13 -104 16 -118 7 -28 -7 -32 -30 -8 -26 25 -31
63 -12 95 13 22 14 33 6 49 -28 53 -64 -15 -58 -111 3 -66 3 -67 -13 -43 -11
17 -16 42 -14 75 2 46 1 50 -19 48 -11 -1 -29 2 -39 6 -26 11 -42 -8 -28 -33
13 -25 15 -116 2 -108 -5 3 -12 33 -16 66 -4 33 -11 63 -16 66 -8 5 -4 -60 6
-93 2 -7 0 -15 -6 -19 -6 -3 0 -19 14 -38 23 -30 24 -33 8 -52 -23 -29 -45
-39 -124 -59 -54 -13 -71 -14 -82 -5 -8 7 -16 9 -16 4 -1 -5 -5 7 -8 26 -13
63 39 146 127 201 17 11 32 29 32 39 0 10 12 49 26 86 22 55 27 90 30 174 12
408 13 412 54 505 17 37 72 176 100 252 12 31 12 31 49 18 21 -7 56 -22 77
-33z m840 -84 c30 0 58 3 64 7 5 3 10 0 10 -7 0 -8 7 -23 15 -34 14 -18 14
-18 15 4 0 13 -4 20 -10 17 -5 -3 -10 -1 -10 4 0 6 9 11 21 11 18 0 20 -4 14
-30 -4 -16 -5 -30 -2 -30 11 0 47 39 47 51 0 9 3 10 11 2 7 -7 8 -22 0 -49
-11 -39 -6 -79 12 -101 5 -7 7 -13 3 -13 -6 0 32 -109 44 -125 4 -5 8 -51 9
-102 2 -100 15 -199 29 -217 5 -6 9 -18 10 -26 0 -32 43 -258 59 -315 28 -100
30 -288 2 -217 -5 13 -6 34 -3 47 5 21 -16 110 -33 138 -5 8 -11 -2 -18 -26
l-11 -39 -14 52 c-12 45 -16 51 -36 46 -23 -6 -42 8 -25 18 5 4 11 0 14 -6 3
-9 7 -7 12 6 5 11 3 27 -3 37 -24 37 -9 59 39 59 10 0 19 6 19 13 -1 22 -28
121 -47 172 -11 28 -20 74 -22 104 -1 30 -8 71 -15 93 -8 22 -10 41 -5 44 5 3
6 11 2 17 -4 7 -8 30 -9 52 -1 22 -9 53 -17 69 -11 20 -13 36 -6 52 5 15 5 34
-1 49 -5 14 -11 39 -12 56 -1 17 -9 34 -18 37 -8 3 -17 8 -20 11 -3 3 -15 11
-27 18 -17 10 -23 10 -26 0 -3 -9 -9 -9 -23 -1 -14 8 -24 8 -36 1 -19 -12 -48
6 -48 29 0 8 -4 14 -10 14 -14 0 -12 -37 3 -43 7 -3 5 -6 -5 -6 -14 -1 -18 7
-18 35 0 24 4 33 12 28 6 -4 35 -7 64 -6z m-1559 -4 c27 -7 34 -34 22 -79 -11
-40 -38 -60 -90 -69 -36 -6 -68 -31 -56 -43 4 -3 -4 -14 -18 -24 -32 -26 -53
-100 -50 -174 2 -43 -2 -65 -12 -77 -10 -12 -14 -28 -10 -47 5 -24 2 -34 -16
-46 -48 -34 -81 -11 -90 65 -5 45 -3 56 23 97 16 25 27 50 24 54 -2 4 -26 11
-52 15 -78 11 -101 51 -67 118 8 15 15 35 15 42 0 8 5 14 10 14 6 0 10 6 10
13 0 7 9 20 20 30 19 16 22 16 45 1 14 -9 25 -19 25 -23 0 -3 11 -14 25 -23
34 -25 70 -10 79 32 3 18 20 50 37 72 42 52 74 66 126 52z m3745 -74 c2 -6 25
-14 52 -18 40 -6 52 -12 65 -35 10 -18 31 -34 55 -42 21 -8 42 -18 45 -23 3
-5 32 -17 64 -26 45 -13 62 -24 77 -49 27 -44 25 -52 -15 -71 -19 -10 -46 -28
-58 -42 -43 -46 -113 -31 -143 31 -9 19 -20 35 -24 35 -5 0 -21 11 -37 24 -20
17 -39 23 -70 22 -23 0 -45 3 -50 7 -13 14 -5 160 10 185 10 15 24 16 29 2z
m-4735 -226 c3 -8 1 -25 -4 -36 -6 -15 -5 -34 4 -61 8 -23 11 -54 7 -75 -9
-56 -45 -131 -65 -137 -22 -7 -54 12 -70 42 -16 30 1 90 36 123 14 13 25 31
25 40 0 8 7 25 15 37 11 16 12 22 3 25 -10 4 -10 10 -1 31 14 30 40 36 50 11z
m2897 -128 c13 -12 26 -32 28 -42 2 -13 13 -20 35 -22 41 -4 53 -43 25 -81
-19 -26 -41 -30 -73 -17 -12 5 -18 1 -23 -17 -7 -28 -32 -32 -39 -5 -3 10 -1
18 5 18 5 0 2 7 -6 16 -20 20 -20 33 0 55 14 15 14 23 3 53 -10 28 -10 38 0
50 17 20 18 20 45 -8z m-1867 -11 c30 -21 38 -72 21 -131 -11 -39 -18 -50 -37
-52 -32 -5 -119 36 -127 60 -3 10 -13 18 -23 18 -35 0 -45 26 -27 65 21 43 30
49 54 34 15 -10 24 -9 43 4 29 21 68 22 96 2z m-1729 -29 c15 -8 45 -17 65
-21 46 -9 64 -33 72 -100 7 -47 5 -53 -23 -83 -36 -38 -74 -42 -132 -12 -31
16 -45 18 -65 10 -35 -13 -74 -3 -106 27 -26 24 -26 26 -13 71 8 25 21 56 29
69 31 46 120 66 173 39z m4831 -185 c26 -26 44 -94 36 -134 -7 -32 -56 -117
-78 -135 -7 -6 -45 -12 -85 -13 -87 -4 -95 3 -85 75 7 60 35 111 96 176 52 55
83 64 116 31z m-463 -258 c15 -27 38 -58 52 -71 17 -17 21 -27 14 -34 -6 -6
-8 -24 -5 -39 9 -44 -18 -76 -67 -81 -23 -2 -45 1 -49 7 -5 5 -11 47 -14 92
-4 73 -3 86 15 108 11 14 18 32 15 39 -5 12 0 26 9 26 1 0 15 -21 30 -47z
m-4161 -6 c10 -8 25 -29 34 -47 9 -18 28 -42 43 -53 l26 -19 61 37 c51 31 70
38 118 39 l58 1 -1 -93 c-2 -91 -3 -95 -40 -149 -21 -30 -66 -85 -101 -120
-35 -36 -63 -69 -63 -74 0 -4 9 -14 20 -22 11 -8 25 -28 31 -45 7 -21 18 -32
30 -32 38 0 69 -109 32 -111 -10 -1 -22 -2 -28 -4 -5 -1 -14 -3 -20 -3 -21 -4
-62 -49 -73 -81 -15 -42 -90 -141 -107 -141 -27 0 -38 32 -75 212 -10 52 -4
157 11 174 7 9 25 22 40 29 26 14 44 50 29 60 -4 2 -5 16 -2 30 4 21 1 25 -20
25 -14 0 -36 -9 -50 -19 -13 -11 -36 -23 -50 -26 -21 -5 -30 -1 -47 24 -13 17
-29 31 -37 31 -9 0 -42 25 -75 57 -64 61 -71 85 -49 162 17 61 79 107 205 152
62 22 76 23 100 6z m4199 -332 c11 -21 22 -64 24 -95 4 -52 2 -58 -37 -110
-23 -30 -41 -60 -41 -66 0 -6 -11 -19 -24 -27 -23 -15 -25 -14 -81 41 -60 59
-95 107 -95 130 0 8 7 29 16 48 18 37 126 104 169 104 14 0 25 5 25 11 0 22
24 2 44 -36z m1947 -6 c16 -16 19 -29 16 -65 -3 -24 -1 -44 4 -44 5 0 8 -10 8
-22 -1 -13 2 -31 6 -40 4 -10 3 -18 -3 -18 -5 0 -13 7 -16 16 -4 11 -14 14
-33 10 -33 -7 -44 0 -61 37 -16 37 -15 62 3 77 8 7 15 19 15 27 0 15 20 42 33
43 4 0 16 -9 28 -21z m-5757 -50 c69 -54 75 -139 13 -206 -27 -30 -86 -31
-112 -3 -10 11 -25 22 -34 25 -14 4 -16 17 -13 82 5 88 17 110 66 116 17 2 36
5 42 5 6 1 23 -7 38 -19z m849 -18 c55 -24 63 -39 61 -110 -3 -81 -57 -136
-99 -101 -7 6 -24 8 -37 5 -18 -5 -32 1 -56 23 -30 28 -31 32 -25 83 6 61 31
95 77 108 17 5 32 10 33 10 1 1 22 -8 46 -18z m3304 -1 c27 0 38 -8 63 -42 35
-48 40 -112 13 -159 -15 -25 -23 -29 -61 -29 -71 0 -128 41 -151 109 -16 50
-14 75 12 98 28 26 47 33 72 28 11 -3 35 -5 52 -5z m-2479 -30 c39 -24 42 -24
42 -5 0 23 44 29 79 10 17 -9 36 -13 41 -10 6 3 10 2 10 -4 0 -11 -80 -91 -91
-91 -10 0 -36 27 -41 42 -3 9 -9 8 -22 -5 -17 -17 -31 -22 -51 -17 -5 1 -25 2
-42 2 -30 -1 -33 1 -33 28 0 19 9 35 26 49 33 26 41 26 82 1z m-2319 -85 c36
-18 38 -25 47 -127 6 -81 6 -84 -21 -110 -37 -37 -57 -35 -95 8 -44 50 -51 76
-42 139 15 96 49 123 111 90z m5881 -80 c36 -18 80 -81 80 -113 0 -63 -81
-173 -159 -216 -40 -21 -62 -26 -121 -26 -39 0 -80 5 -90 10 -26 14 -70 91
-70 123 0 30 51 93 83 103 12 3 45 28 72 54 83 79 142 98 205 65z"/>
<path d="M3729 4406 c-12 -6 -21 -14 -20 -18 0 -5 1 -15 1 -24 0 -12 7 -15 24
-12 18 4 27 -1 35 -19 14 -31 25 -29 57 11 27 33 54 38 54 10 0 -21 46 -47 70
-39 11 3 20 11 20 16 0 5 9 9 19 9 11 0 23 9 27 22 10 34 -21 51 -81 43 -66
-8 -81 -8 -138 3 -31 6 -54 5 -68 -2z"/>
<path d="M2490 1155 c-25 -13 -59 -24 -76 -25 -41 0 -50 -13 -57 -86 -7 -72 8
-104 52 -104 15 0 32 -5 37 -10 14 -14 139 -40 192 -40 26 0 62 10 92 25 47
24 50 27 50 65 0 31 -6 45 -27 63 -15 12 -46 43 -70 68 -25 26 -56 49 -72 52
-16 3 -39 8 -52 11 -15 4 -41 -4 -69 -19z"/>
<path d="M83 1022 c-6 -4 -14 -18 -18 -31 -11 -34 -26 -49 -47 -43 -15 4 -18
-2 -18 -32 l0 -36 48 0 c59 0 94 9 89 24 -2 6 2 22 9 35 10 20 11 27 1 33 -7
4 -8 8 -3 8 11 0 -13 29 -34 40 -9 5 -21 6 -27 2z"/>
<path d="M487 988 c-7 -20 10 -56 35 -71 18 -12 53 -14 168 -11 290 8 336 14
296 36 -27 15 -53 18 -227 19 -145 0 -172 3 -203 20 -42 22 -62 24 -69 7z"/>
</g>
</svg>
